<svg width="63" height="65" viewBox="0 0 63 65" fill="none" xmlns="http://www.w3.org/2000/svg">
<g clip-path="url(#clip0)">
<rect x="1" y="1" width="30" height="31" fill="#C4C4C4"/>
<rect x="32" y="1" width="30" height="31" fill="#C4C4C4" fill-opacity="0.5"/>
<rect x="32" y="33" width="30" height="31" fill="#C4C4C4"/>
<rect x="1" y="33" width="30" height="31" fill="#C4C4C4" fill-opacity="0.5"/>
<g filter="url(#filter0_d)">
<path d="M46.6087 32.8768C46.5483 33.2841 46.6241 34.0888 46.8361 35.291L48.977 47.4328C49.2173 48.7952 48.9663 49.7154 48.2243 50.1933C47.9583 50.3724 47.6651 50.4902 47.3445 50.5468C46.6713 50.6655 46.1773 50.6286 45.8624 50.4362C45.9238 49.847 45.8711 49.0795 45.7043 48.1338C45.5376 47.1881 45.3227 46.5318 45.0597 46.165C44.7939 45.7822 44.4634 45.5017 44.0684 45.3234C43.3858 45.0141 42.3713 44.9781 41.0249 45.2155L20.4397 48.8204C18.701 49.4575 17.9772 50.6016 18.2683 52.2526C18.3503 52.7174 18.4752 53.1912 18.6429 53.6739C18.6429 53.6739 18.8145 54.1312 19.1575 55.0459C19.2753 55.3391 19.0627 55.6328 18.5196 55.9269C17.5295 56.4981 16.9157 56.6724 16.6781 56.4499C14.7091 52.5 12.7479 49.3917 10.7946 47.1248C10.7192 47.072 10.666 46.9574 10.6349 46.7811C10.6038 46.6048 10.6326 46.3931 10.7212 46.1461C10.8071 45.8831 10.9292 45.6384 11.0876 45.4121C11.4573 44.8842 11.8024 44.592 12.123 44.5354L41.2393 39.4015C42.1529 39.2404 42.7356 39.0302 42.9874 38.7709C43.3608 38.358 43.5528 37.8532 43.5632 37.2563C43.5576 36.6623 43.57 36.123 43.6002 35.6384C43.6116 35.1406 43.6715 34.6838 43.78 34.268C44.0045 33.3855 44.4855 32.8793 45.2228 32.7493C45.7678 32.6532 46.2297 32.6957 46.6087 32.8768Z" fill="#0C0B0B" fill-opacity="0.8"/>
<path d="M46.6087 32.8768L47.5979 33.0235L47.7063 32.2929L47.0398 31.9745L46.6087 32.8768ZM48.2243 50.1933L47.6828 49.3526L47.6741 49.3582L47.6656 49.3639L48.2243 50.1933ZM45.8624 50.4362L44.8678 50.3327L44.8024 50.9605L45.341 51.2896L45.8624 50.4362ZM45.0597 46.165L44.2383 46.7354L44.2426 46.7416L44.247 46.7477L45.0597 46.165ZM44.0684 45.3234L43.6556 46.2342L43.6571 46.2349L44.0684 45.3234ZM41.0249 45.2155L41.1974 46.2005L41.1986 46.2003L41.0249 45.2155ZM20.4397 48.8204L20.2672 47.8354L20.1794 47.8508L20.0957 47.8815L20.4397 48.8204ZM18.6429 53.6739L17.6983 54.0022L17.7023 54.0137L17.7066 54.0251L18.6429 53.6739ZM19.1575 55.0459L18.2212 55.3971L18.2253 55.4079L18.2296 55.4187L19.1575 55.0459ZM18.5196 55.9269L18.0434 55.0475L18.0315 55.0539L18.0198 55.0607L18.5196 55.9269ZM16.6781 56.4499L15.7832 56.896L15.8633 57.0568L15.9945 57.1797L16.6781 56.4499ZM10.7946 47.1248L11.5522 46.472L11.4706 46.3773L11.3682 46.3056L10.7946 47.1248ZM10.7212 46.1461L11.6624 46.4839L11.6674 46.4702L11.6719 46.4563L10.7212 46.1461ZM11.0876 45.4121L10.2685 44.8386L11.0876 45.4121ZM42.9874 38.7709L43.7048 39.4676L43.7172 39.4549L43.7291 39.4417L42.9874 38.7709ZM43.5632 37.2563L44.5631 37.2739L44.5633 37.2604L44.5632 37.247L43.5632 37.2563ZM43.6002 35.6384L44.5983 35.7007L44.5995 35.681L44.5999 35.6613L43.6002 35.6384ZM43.78 34.268L44.7476 34.5205L44.7491 34.5146L43.78 34.268ZM45.6196 32.7301C45.5711 33.0571 45.585 33.4582 45.6247 33.8796C45.666 34.3185 45.7427 34.8489 45.8513 35.4646L47.8209 35.1173C47.7175 34.5308 47.6503 34.0579 47.6159 33.692C47.5798 33.3086 47.586 33.1037 47.5979 33.0235L45.6196 32.7301ZM45.8513 35.4646L47.9922 47.6064L49.9618 47.2591L47.8209 35.1173L45.8513 35.4646ZM47.9922 47.6064C48.2074 48.8266 47.9123 49.2048 47.6828 49.3526L48.7657 51.034C50.0204 50.226 50.2272 48.7638 49.9618 47.2591L47.9922 47.6064ZM47.6656 49.3639C47.5176 49.4636 47.3558 49.5293 47.1709 49.5619L47.5182 51.5316C47.9744 51.4511 48.3991 51.2812 48.7829 51.0227L47.6656 49.3639ZM47.1709 49.5619C46.8876 49.6119 46.683 49.6213 46.5435 49.6109C46.4029 49.6004 46.3674 49.5729 46.3838 49.5829L45.341 51.2896C45.9801 51.68 46.7861 51.6606 47.5182 51.5316L47.1709 49.5619ZM46.857 50.5398C46.9321 49.819 46.8633 48.9482 46.6891 47.9601L44.7195 48.3074C44.8788 49.2108 44.9154 49.8749 44.8678 50.3327L46.857 50.5398ZM46.6891 47.9601C46.5193 46.9968 46.2761 46.1454 45.8724 45.5823L44.247 46.7477C44.3693 46.9183 44.5559 47.3793 44.7195 48.3074L46.6891 47.9601ZM45.8811 45.5947C45.52 45.0747 45.0522 44.6703 44.4797 44.4119L43.6571 46.2349C43.8746 46.333 44.0677 46.4897 44.2383 46.7354L45.8811 45.5947ZM44.4812 44.4126C43.5174 43.9758 42.2545 43.9832 40.8513 44.2307L41.1986 46.2003C42.4881 45.9729 43.2543 46.0523 43.6556 46.2342L44.4812 44.4126ZM40.8524 44.2305L20.2672 47.8354L20.6122 49.8054L41.1974 46.2005L40.8524 44.2305ZM20.0957 47.8815C19.0945 48.2484 18.2642 48.8054 17.7478 49.6216C17.2229 50.4512 17.1055 51.4165 17.2835 52.4262L19.2532 52.0789C19.1401 51.4376 19.239 51.0054 19.4379 50.6909C19.6453 50.3631 20.0463 50.0296 20.7838 49.7594L20.0957 47.8815ZM17.2835 52.4262C17.3755 52.9477 17.5145 53.4732 17.6983 54.0022L19.5875 53.3457C19.4358 52.9092 19.3251 52.4871 19.2532 52.0789L17.2835 52.4262ZM18.6429 53.6739C17.7066 54.0251 17.7066 54.0252 17.7066 54.0252C17.7066 54.0252 17.7066 54.0252 17.7066 54.0252C17.7066 54.0252 17.7066 54.0252 17.7066 54.0252C17.7066 54.0252 17.7067 54.0252 17.7067 54.0252C17.7067 54.0253 17.7067 54.0253 17.7067 54.0253C17.7067 54.0254 17.7067 54.0254 17.7068 54.0255C17.7068 54.0255 17.7068 54.0255 17.7068 54.0256C17.7068 54.0256 17.7068 54.0256 17.7068 54.0257C17.7069 54.0258 17.7069 54.0258 17.7069 54.0259C17.707 54.0262 17.707 54.0262 17.7071 54.0265C17.7076 54.0277 17.7072 54.0267 17.7078 54.0282C17.7087 54.0306 17.7076 54.0278 17.7086 54.0305C17.7089 54.0312 17.7089 54.0312 17.7092 54.0319C17.7096 54.033 17.7091 54.0316 17.7095 54.0327C17.7095 54.0328 17.7096 54.033 17.7096 54.0331C17.7097 54.0332 17.7097 54.0334 17.7098 54.0335C17.7115 54.0381 17.7093 54.0324 17.7112 54.0372C17.7121 54.0398 17.7117 54.0387 17.7128 54.0416C17.7129 54.0418 17.7129 54.042 17.713 54.0422C17.7131 54.0424 17.7132 54.0426 17.7132 54.0428C17.7135 54.0436 17.7134 54.0431 17.7137 54.044C17.7145 54.046 17.7139 54.0445 17.7147 54.0466C17.7151 54.0479 17.7184 54.0565 17.7192 54.0586C17.7206 54.0623 17.7191 54.0584 17.7205 54.0621C17.7211 54.0638 17.7212 54.0639 17.7218 54.0657C17.722 54.0662 17.7245 54.0727 17.7247 54.0734C17.7317 54.092 17.7239 54.0713 17.7313 54.0908C17.7319 54.0925 17.7315 54.0914 17.7321 54.0932C17.7323 54.0936 17.7324 54.094 17.7326 54.0944C17.7327 54.0948 17.7329 54.0952 17.733 54.0956C17.7343 54.099 17.7336 54.097 17.7349 54.1005C17.7394 54.1126 17.7342 54.0985 17.7388 54.1109C17.7397 54.1133 17.7399 54.1139 17.7408 54.1163C17.7423 54.1202 17.7404 54.1152 17.7419 54.1191C17.7421 54.1196 17.7422 54.1201 17.7424 54.1205C17.7426 54.121 17.7428 54.1215 17.7429 54.1219C17.7434 54.1233 17.7467 54.1321 17.7473 54.1337C17.7527 54.148 17.7512 54.1439 17.7569 54.1591C17.7571 54.1598 17.7669 54.1857 17.7674 54.1873C17.784 54.2314 17.7621 54.173 17.779 54.2181C17.7854 54.2351 17.7974 54.2672 17.8051 54.2877C17.8106 54.3023 17.8139 54.3112 17.8197 54.3266C17.8238 54.3374 17.8194 54.3259 17.8235 54.3367C17.8237 54.3371 17.8253 54.3414 17.8254 54.3419C17.8257 54.3427 17.8261 54.3436 17.8264 54.3444C17.8267 54.3453 17.827 54.3462 17.8274 54.347C17.8303 54.3548 17.8284 54.3497 17.8313 54.3575C17.8334 54.3632 17.8311 54.357 17.8333 54.3628C17.8336 54.3637 17.8339 54.3646 17.8343 54.3655C17.8346 54.3663 17.8349 54.3672 17.8353 54.3681C17.8359 54.3697 17.8387 54.3773 17.8393 54.3789C17.8409 54.383 17.8419 54.3857 17.8434 54.3899C17.8438 54.3908 17.8441 54.3917 17.8445 54.3927C17.8448 54.3936 17.8452 54.3945 17.8455 54.3954C17.8459 54.3964 17.8462 54.3973 17.8466 54.3982C17.8469 54.3992 17.8473 54.4001 17.8476 54.401C17.8483 54.4029 17.849 54.4048 17.8497 54.4067C17.8501 54.4076 17.8504 54.4086 17.8508 54.4095C17.8512 54.4104 17.8515 54.4114 17.8519 54.4123C17.8521 54.413 17.8689 54.4576 17.8695 54.4592C17.8808 54.4894 17.8764 54.4778 17.888 54.5088C17.8885 54.5101 17.8923 54.5202 17.8929 54.5216C17.9011 54.5435 17.8895 54.5126 17.8977 54.5346C17.9056 54.5557 17.8996 54.5397 17.9076 54.5611C17.9284 54.6164 17.97 54.7272 17.9961 54.7969C18.0219 54.8656 17.9946 54.7929 18.0207 54.8625C18.0217 54.8652 18.045 54.9273 18.0463 54.9308C18.0469 54.9323 18.0589 54.9643 18.0595 54.966C18.0723 54.9999 18.0602 54.9677 18.073 55.0018C18.0836 55.03 18.0897 55.0464 18.1006 55.0755C18.1061 55.0901 18.1093 55.0986 18.1148 55.1134C18.1205 55.1284 18.1163 55.1174 18.122 55.1325C18.1222 55.1331 18.129 55.1513 18.1293 55.1519C18.1297 55.153 18.1435 55.1898 18.144 55.1911C18.1446 55.1927 18.1452 55.1944 18.1458 55.196C18.1464 55.1977 18.1471 55.1993 18.1477 55.201C18.1489 55.2042 18.1502 55.2077 18.1514 55.2109C18.1595 55.2325 18.1508 55.2092 18.1589 55.2309C18.1831 55.2953 18.1651 55.2474 18.1896 55.3127C18.1904 55.3148 18.2201 55.394 18.2212 55.3971L20.0938 54.6947C20.0854 54.6721 20.0863 54.6745 20.0779 54.6521C20.0714 54.6349 20.0685 54.6272 20.0622 54.6102C20.0576 54.598 20.0512 54.5811 20.0467 54.5691C20.0325 54.5313 20.0456 54.5661 20.0315 54.5285C20.0166 54.4887 20.0165 54.4884 20.0019 54.4495C19.9937 54.4276 19.9811 54.3941 19.9732 54.3731C19.9573 54.3308 19.9335 54.2672 19.9189 54.2284C19.9042 54.1892 19.9206 54.2329 19.906 54.1939C19.9007 54.1797 19.9049 54.1911 19.8996 54.1769C19.8979 54.1724 19.895 54.1645 19.8933 54.1601C19.89 54.1512 19.8841 54.1356 19.8809 54.1269C19.8804 54.1256 19.8799 54.1242 19.8793 54.1228C19.8788 54.1215 19.8783 54.1201 19.8778 54.1187C19.8744 54.1095 19.8782 54.1198 19.8748 54.1106C19.8743 54.1094 19.8691 54.0956 19.8687 54.0944C19.8148 53.9507 19.7404 53.7523 19.7079 53.6657C19.7029 53.6523 19.6814 53.5952 19.6777 53.5853C19.676 53.5808 19.6655 53.5528 19.6642 53.5492C19.6479 53.506 19.6675 53.558 19.6516 53.5157C19.6266 53.4489 19.6532 53.5199 19.6295 53.4567C19.6266 53.449 19.6129 53.4126 19.6114 53.4085C19.5974 53.3713 19.6099 53.4046 19.5973 53.371C19.5864 53.3419 19.5968 53.3697 19.5873 53.3442C19.5867 53.3427 19.5858 53.3404 19.5854 53.3392C19.5852 53.3386 19.5847 53.3374 19.5845 53.3369C19.5845 53.3368 19.5842 53.3359 19.5841 53.3358C19.5841 53.3357 19.5838 53.3349 19.5837 53.3348C19.5814 53.3286 19.5832 53.3334 19.5812 53.3281C19.5808 53.3268 19.5799 53.3245 19.5797 53.3241C19.5796 53.3238 19.5794 53.3231 19.5794 53.3231C19.5793 53.323 19.5793 53.323 19.5793 53.323C19.5793 53.323 19.5793 53.3229 19.5793 53.3229C19.5793 53.3229 19.5793 53.3229 19.5793 53.3229C19.5793 53.3229 19.5793 53.3228 19.5793 53.3228C19.5792 53.3228 19.5792 53.3228 19.5792 53.3228C19.5792 53.3228 19.5792 53.3227 19.5792 53.3227C19.5792 53.3227 19.5792 53.3227 18.6429 53.6739ZM18.2296 55.4187C18.1957 55.3343 18.1777 55.224 18.1967 55.1063C18.2147 54.9953 18.2578 54.9253 18.2765 54.8995C18.2932 54.8764 18.2933 54.8842 18.251 54.917C18.2103 54.9487 18.144 54.993 18.0434 55.0475L18.9957 56.8062C19.3187 56.6313 19.6608 56.3978 19.8963 56.0725C20.1692 55.6957 20.2932 55.1901 20.0854 54.6731L18.2296 55.4187ZM18.0198 55.0607C17.5494 55.3321 17.2322 55.4705 17.0434 55.5241C16.9493 55.5508 16.938 55.5414 16.9834 55.544C17.0376 55.547 17.2031 55.5715 17.3618 55.7201L15.9945 57.1797C16.5387 57.6895 17.2541 57.5434 17.5899 57.448C18.0149 57.3273 18.4996 57.0929 19.0193 56.793L18.0198 55.0607ZM17.5731 56.0037C15.5827 52.0112 13.5787 48.8239 11.5522 46.472L10.0371 47.7775C11.9171 49.9594 13.8354 52.9889 15.7832 56.896L17.5731 56.0037ZM11.3682 46.3056C11.5185 46.4109 11.5838 46.5323 11.605 46.5777C11.6267 46.6245 11.6259 46.6425 11.6197 46.6074L9.65007 46.9547C9.68894 47.1752 9.79755 47.6474 10.2211 47.9439L11.3682 46.3056ZM11.6197 46.6074C11.6252 46.6386 11.621 46.6474 11.624 46.6249C11.6272 46.6019 11.6366 46.556 11.6624 46.4839L9.78003 45.8083C9.65814 46.1479 9.57789 46.5454 9.65007 46.9547L11.6197 46.6074ZM11.6719 46.4563C11.7272 46.2869 11.8051 46.131 11.9068 45.9857L10.2685 44.8386C10.0534 45.1458 9.88696 45.4792 9.77058 45.8359L11.6719 46.4563ZM11.9068 45.9857C12.0614 45.765 12.1842 45.6328 12.2699 45.5602C12.3575 45.486 12.3657 45.5081 12.2967 45.5203L11.9494 43.5506C11.2072 43.6815 10.6603 44.279 10.2685 44.8386L11.9068 45.9857ZM12.2967 45.5203L41.4129 40.3863L41.0656 38.4167L11.9494 43.5506L12.2967 45.5203ZM41.4129 40.3863C41.9013 40.3002 42.3362 40.1952 42.7008 40.0637C43.0468 39.9389 43.4228 39.758 43.7048 39.4676L42.27 38.0743C42.3002 38.0432 42.259 38.0969 42.0222 38.1823C41.8042 38.261 41.4909 38.3417 41.0656 38.4167L41.4129 40.3863ZM43.7291 39.4417C44.277 38.8359 44.5487 38.0935 44.5631 37.2739L42.5634 37.2388C42.5568 37.6128 42.4447 37.8802 42.2457 38.1002L43.7291 39.4417ZM44.5632 37.247C44.5578 36.6718 44.5698 36.1569 44.5983 35.7007L42.6021 35.5761C42.5701 36.0892 42.5575 36.6529 42.5633 37.2657L44.5632 37.247ZM44.5999 35.6613C44.6098 35.229 44.6615 34.8505 44.7476 34.5205L42.8124 34.0156C42.6815 34.5171 42.6134 35.0522 42.6005 35.6156L44.5999 35.6613ZM44.7491 34.5146C44.8317 34.1902 44.942 34.0122 45.0341 33.9152C45.1163 33.8287 45.2223 33.7648 45.3964 33.7341L45.0491 31.7645C44.4859 31.8638 43.9828 32.118 43.5841 32.5377C43.1952 32.9471 42.9529 33.4634 42.8109 34.0215L44.7491 34.5146ZM45.3964 33.7341C45.8008 33.6628 46.0383 33.7125 46.1776 33.7791L47.0398 31.9745C46.4212 31.6789 45.7348 31.6436 45.0491 31.7645L45.3964 33.7341Z" fill="white" fill-opacity="0.8"/>
</g>
<g filter="url(#filter1_d)">
<path d="M36.7683 44.3816C33.0715 44.705 29.723 43.7808 26.7228 41.6089C24.3489 39.8723 22.5469 37.2035 21.3169 33.6023C20.6631 31.7316 20.2249 29.5234 20.0022 26.9778C19.778 24.416 19.8241 22.1409 20.1403 20.1527C20.4727 18.163 20.9818 16.4193 21.6677 14.9215C22.3698 13.4224 23.2066 12.1565 24.1783 11.1238C25.1647 10.0736 26.1925 9.21576 27.2616 8.55038C29.2772 7.31205 31.3876 6.59643 33.5927 6.4035C37.4355 6.06731 40.8143 6.96439 43.7291 9.09475C46.1207 10.8461 47.946 13.5946 49.205 17.3403C49.8497 19.2935 50.2834 21.5429 50.5061 24.0885C50.7274 26.6179 50.6683 28.8369 50.3288 30.7455C50.0055 32.6527 49.4914 34.3396 48.7864 35.8064C48.0963 37.2555 47.258 38.5052 46.2716 39.5555C45.3014 40.6043 44.2743 41.4702 43.1904 42.1533C41.1141 43.4459 38.9735 44.1887 36.7683 44.3816ZM32.7983 39.901C33.9639 40.3382 35.2195 40.4979 36.5653 40.3802C37.9273 40.261 39.1443 39.885 40.2162 39.252C41.3044 38.6176 42.194 37.6739 42.8849 36.4208C44.3703 33.791 44.8896 29.9225 44.4428 24.815C43.7392 16.7728 41.4938 12.1168 37.7066 10.847C36.5276 10.4437 35.2572 10.3016 33.8952 10.4208C32.5494 10.5385 31.331 10.8983 30.24 11.5003C29.1476 12.086 28.2559 13.0054 27.565 14.2586C26.0957 16.8868 25.6009 20.9412 26.0803 26.4215C26.7428 33.9935 28.9821 38.4867 32.7983 39.901Z" fill="black"/>
<path d="M26.7228 41.6089L26.1324 42.416L26.1364 42.4189L26.7228 41.6089ZM21.3169 33.6023L22.2633 33.2791L22.261 33.2724L21.3169 33.6023ZM20.1403 20.1527L19.1539 19.9879L19.1527 19.9956L20.1403 20.1527ZM21.6677 14.9215L20.762 14.4974L20.7585 14.5052L21.6677 14.9215ZM24.1783 11.1238L24.9066 11.8091L24.9072 11.8084L24.1783 11.1238ZM27.2616 8.55038L26.7381 7.69832L26.7332 7.70137L27.2616 8.55038ZM43.7291 9.09475L44.32 8.28795L44.3192 8.2874L43.7291 9.09475ZM49.205 17.3403L50.1546 17.0268L50.1528 17.0217L49.205 17.3403ZM50.3288 30.7455L49.3442 30.5704L49.3428 30.5784L50.3288 30.7455ZM48.7864 35.8064L47.8851 35.3732L47.8836 35.3764L48.7864 35.8064ZM46.2716 39.5555L45.5427 38.8708L45.5375 38.8764L46.2716 39.5555ZM43.1904 42.1533L43.7189 43.0022L43.7235 42.9993L43.1904 42.1533ZM32.7983 39.901L33.1495 38.9647L33.1458 38.9633L32.7983 39.901ZM40.2162 39.252L39.7126 38.3881L39.7078 38.3909L40.2162 39.252ZM42.8849 36.4208L42.0142 35.9289L42.0092 35.9379L42.8849 36.4208ZM37.7066 10.847L37.3829 11.7932L37.3887 11.7951L37.7066 10.847ZM30.24 11.5003L30.7126 12.3816L30.7231 12.3758L30.24 11.5003ZM27.565 14.2586L28.4379 14.7465L28.4407 14.7414L27.565 14.2586ZM36.6812 43.3854C33.2235 43.6879 30.1142 42.8294 27.3092 40.7989L26.1364 42.4189C29.3319 44.7322 32.9196 45.7221 36.8555 45.3778L36.6812 43.3854ZM27.3132 40.8018C25.1473 39.2174 23.4464 36.743 22.2633 33.2791L20.3706 33.9255C21.6475 37.6639 23.5505 40.5273 26.1324 42.416L27.3132 40.8018ZM22.261 33.2724C21.6411 31.4989 21.2158 29.376 20.9984 26.8907L19.006 27.065C19.234 29.6709 19.6851 31.9643 20.3729 33.9322L22.261 33.2724ZM20.9984 26.8907C20.7795 24.389 20.8275 22.1986 21.1278 20.3098L19.1527 19.9956C18.8207 22.0833 18.7766 24.443 19.006 27.065L20.9984 26.8907ZM21.1266 20.3175C21.4476 18.396 21.9348 16.74 22.5769 15.3379L20.7585 14.5052C20.0288 16.0986 19.4977 17.93 19.1539 19.9879L21.1266 20.3175ZM22.5733 15.3457C23.2378 13.9267 24.0185 12.7529 24.9066 11.8091L23.45 10.4386C22.3948 11.56 21.5017 12.918 20.7621 14.4974L22.5733 15.3457ZM24.9072 11.8084C25.8426 10.8125 26.8043 10.0129 27.79 9.39939L26.7332 7.70137C25.5807 8.41865 24.4869 9.3346 23.4494 10.4392L24.9072 11.8084ZM27.7851 9.40243C29.6777 8.23965 31.64 7.57817 33.6799 7.3997L33.5056 5.40731C31.1353 5.61468 28.8768 6.38446 26.7382 7.69833L27.7851 9.40243ZM33.6799 7.3997C37.2994 7.08303 40.4337 7.92485 43.1391 9.90211L44.3192 8.2874C41.1949 6.00393 37.5716 5.05158 33.5056 5.40731L33.6799 7.3997ZM43.1383 9.90155C45.3159 11.4962 47.0423 14.0446 48.2571 17.6589L50.1528 17.0217C48.8497 13.1446 46.9255 10.196 44.32 8.28795L43.1383 9.90155ZM48.2554 17.6537C48.8708 19.5184 49.2923 21.6893 49.5099 24.1757L51.5023 24.0013C51.2744 21.3965 50.8285 19.0686 50.1546 17.0268L48.2554 17.6537ZM49.5099 24.1757C49.7257 26.6429 49.6644 28.7702 49.3442 30.5704L51.3133 30.9206C51.6721 28.9036 51.729 26.5929 51.5023 24.0013L49.5099 24.1757ZM49.3428 30.5784C49.0323 32.4102 48.5428 34.0049 47.8851 35.3732L49.6877 36.2396C50.44 34.6744 50.9786 32.8952 51.3147 30.9126L49.3428 30.5784ZM47.8836 35.3764C47.2329 36.7427 46.4508 37.904 45.5427 38.8709L47.0005 40.2401C48.0653 39.1064 48.9597 37.7683 49.6893 36.2364L47.8836 35.3764ZM45.5375 38.8764C44.6199 39.8683 43.6592 40.6758 42.6573 41.3072L43.7235 42.9993C44.8894 42.2647 45.9828 41.3403 47.0057 40.2345L45.5375 38.8764ZM42.6618 41.3043C40.7049 42.5227 38.7138 43.2076 36.6812 43.3854L36.8555 45.3778C39.2332 45.1698 41.5234 44.3691 43.7189 43.0022L42.6618 41.3043ZM32.4471 40.8373C33.7641 41.3313 35.1708 41.506 36.6525 41.3764L36.4782 39.384C35.2683 39.4898 34.1636 39.3451 33.1495 38.9647L32.4471 40.8373ZM36.6525 41.3764C38.1484 41.2455 39.5119 40.8292 40.7247 40.1131L39.7078 38.3909C38.7766 38.9407 37.7062 39.2765 36.4782 39.384L36.6525 41.3764ZM40.7199 40.1159C41.9846 39.3786 42.9945 38.2931 43.7606 36.9036L42.0092 35.9379C41.3934 37.0547 40.6242 37.8567 39.7126 38.3881L40.7199 40.1159ZM43.7556 36.9126C45.3882 34.0224 45.8925 29.911 45.439 24.7279L43.4466 24.9022C43.8868 29.9339 43.3525 33.5597 42.0142 35.9289L43.7556 36.9126ZM45.439 24.7279C45.0819 20.6463 44.3281 17.3376 43.1318 14.857C41.9281 12.361 40.243 10.6427 38.0245 9.8989L37.3887 11.7951C38.9574 12.3211 40.2886 13.5657 41.3303 15.7258C42.3794 17.9012 43.1001 20.9416 43.4466 24.9022L45.439 24.7279ZM38.0303 9.90086C36.707 9.44815 35.2953 9.29443 33.808 9.42456L33.9823 11.4169C35.219 11.3088 36.3483 11.4392 37.3829 11.7932L38.0303 9.90086ZM33.808 9.42456C32.3351 9.55342 30.9801 9.94987 29.7569 10.6247L30.7231 12.3758C31.682 11.8468 32.7637 11.5236 33.9823 11.4169L33.808 9.42456ZM29.7675 10.6189C28.48 11.3092 27.4586 12.3804 26.6892 13.7757L28.4407 14.7414C29.0532 13.6305 29.8152 12.8627 30.7125 12.3816L29.7675 10.6189ZM26.6921 13.7706C25.0729 16.6671 24.5997 20.9714 25.0841 26.5087L27.0765 26.3344C26.602 20.911 27.1186 17.1066 28.4378 14.7465L26.6921 13.7706ZM25.0841 26.5087C25.7505 34.1257 28.0356 39.2024 32.4508 40.8387L33.1458 38.9633C29.9286 37.771 27.735 33.8613 27.0765 26.3344L25.0841 26.5087Z" fill="white" fill-opacity="0.8"/>
</g>
</g>
<defs>
<filter id="filter0_d" x="4.62274" y="31.6994" width="50.4406" height="35.8438" filterUnits="userSpaceOnUse" color-interpolation-filters="sRGB">
<feFlood flood-opacity="0" result="BackgroundImageFix"/>
<feColorMatrix in="SourceAlpha" type="matrix" values="0 0 0 0 0 0 0 0 0 0 0 0 0 0 0 0 0 0 127 0"/>
<feOffset dy="5"/>
<feGaussianBlur stdDeviation="2.5"/>
<feColorMatrix type="matrix" values="0 0 0 0 0 0 0 0 0 0 0 0 0 0 0 0 0 0 0.2 0"/>
<feBlend mode="normal" in2="BackgroundImageFix" result="effect1_dropShadow"/>
<feBlend mode="normal" in="SourceGraphic" in2="effect1_dropShadow" result="shape"/>
</filter>
<filter id="filter1_d" x="17.8627" y="2.33481" width="42.7743" height="50.1097" filterUnits="userSpaceOnUse" color-interpolation-filters="sRGB">
<feFlood flood-opacity="0" result="BackgroundImageFix"/>
<feColorMatrix in="SourceAlpha" type="matrix" values="0 0 0 0 0 0 0 0 0 0 0 0 0 0 0 0 0 0 127 0"/>
<feOffset dx="4" dy="2"/>
<feGaussianBlur stdDeviation="2.5"/>
<feColorMatrix type="matrix" values="0 0 0 0 0 0 0 0 0 0 0 0 0 0 0 0 0 0 0.2 0"/>
<feBlend mode="normal" in2="BackgroundImageFix" result="effect1_dropShadow"/>
<feBlend mode="normal" in="SourceGraphic" in2="effect1_dropShadow" result="shape"/>
</filter>
<clipPath id="clip0">
<rect width="63" height="65" fill="white"/>
</clipPath>
</defs>
</svg>
